<svg id="Group_9" data-name="Group 9" xmlns="http://www.w3.org/2000/svg" xmlns:xlink="http://www.w3.org/1999/xlink" width="195.371" height="195.288" viewBox="0 0 195.371 195.288">
  <defs>
    <clipPath id="clip-path">
      <rect id="Rectangle_1" data-name="Rectangle 1" width="195.371" height="195.288" fill="#fff"/>
    </clipPath>
  </defs>
  <g id="Group_1" data-name="Group 1" clip-path="url(#clip-path)">
    <path id="Path_1" data-name="Path 1" d="M156.426,170.685c0,4.4.137,8.8-.059,13.182a18.62,18.62,0,0,1-1.319,6.239c-2.3,5.507-10.98,6.879-15.342,2.424-14.568-14.878-29.4-29.5-44.077-44.272a5.51,5.51,0,0,0-4.385-1.764c-11.434.112-22.875.353-34.3.034-4.683-.131-8.873-2.416-12.235-5.94-4.057-4.252-5.552-9.268-5.512-15.1.136-19.989-.019-39.979.143-59.967.02-2.552,1.044-5.181,2.016-7.609.6-1.5.561-2.3-.6-3.456Q21.841,35.669,3.038,16.771A9.689,9.689,0,0,1,7.251.344,9.208,9.208,0,0,1,16.4,2.67q88.173,88.2,176.337,176.416a9.407,9.407,0,0,1,1.922,10.166c-1.195,3.02-5.542,6.136-8.766,6.034a10.662,10.662,0,0,1-7.753-3.305c-6.594-6.673-13.256-13.281-19.875-19.931a16.064,16.064,0,0,1-1.321-1.732l-.521.367" transform="translate(0 0)" fill="#fff"/>
    <path id="Path_2" data-name="Path 2" d="M212.712,116.768l-67.85-67.9a.941.941,0,0,1,.6-.128c3.727.728,6.106-1.187,8.588-3.712,13.632-13.868,27.488-27.515,41.113-41.389,3.976-4.048,8.724-4.506,13.3-1.647a7.417,7.417,0,0,1,3.767,5.993c.26,4.072.461,8.155.466,12.234q.055,47.023.02,94.048Z" transform="translate(-56.286 -0.065)" fill="#fff"/>
  </g>
</svg>
