<svg id="Group_7" data-name="Group 7" xmlns="http://www.w3.org/2000/svg" xmlns:xlink="http://www.w3.org/1999/xlink" width="151.193" height="151.191" viewBox="0 0 151.193 151.191">
  <defs>
    <clipPath id="clip-path">
      <rect id="Rectangle_3" data-name="Rectangle 3" width="151.194" height="151.191" fill="#fff"/>
    </clipPath>
  </defs>
  <g id="Group_5" data-name="Group 5" clip-path="url(#clip-path)">
    <path id="Path_6" data-name="Path 6" d="M69.385,151.191c-1.1-.2-2.2-.471-3.307-.578a66.579,66.579,0,0,1-13.112-2.891,75.3,75.3,0,0,1-34-22.083,72.177,72.177,0,0,1-12.22-18.918A78.108,78.108,0,0,1,0,76.183c0-.189.027-.377.046-.63H25.925C26.333,89.776,31.407,102,41.732,111.8a47.065,47.065,0,0,0,25.591,12.75c26.071,3.987,46.846-11.484,54.264-30.736,8.9-23.11.4-46.786-18.7-59.522C84.147,21.8,59.894,24.338,45.112,36.6L59.387,49.836c-2.885.22-5.565.41-8.242.629-4.678.383-9.353.789-14.03,1.171-1.549.126-3.1.209-4.652.3-3.249.2-6.5.379-9.746.6q-6.242.419-12.48.9a5.438,5.438,0,0,0-1.085.279c0-2.893-.07-5.762.024-8.626.064-1.929.423-3.848.537-5.778.158-2.681.157-5.371.322-8.051.248-4.021.59-8.036.87-12.055.129-1.845.224-3.694.3-5.542.114-2.734.186-5.47.3-8.2a8.914,8.914,0,0,1,.324-1.432C14.6,6.673,17.3,9.213,19.95,11.793q2.857,2.778,5.622,5.651c.627.652.983.522,1.689.026,4.063-2.846,8.074-5.8,12.329-8.331A61.64,61.64,0,0,1,58.659,1.957C61.561,1.35,64.51.943,67.453.564A44.4,44.4,0,0,1,74.391.009,100.709,100.709,0,0,1,89.534,1.382a73.268,73.268,0,0,1,32.089,14.333,75.942,75.942,0,0,1,27.121,40.962c.964,3.631,1.249,7.442,1.873,11.166a13.237,13.237,0,0,0,.577,1.821V81.775c-.1.142-.264.273-.289.427-.4,2.451-.807,4.9-1.181,7.359a67.471,67.471,0,0,1-5.969,18.634,74.357,74.357,0,0,1-8.661,13.864,74.9,74.9,0,0,1-30.35,23.254,72.815,72.815,0,0,1-19.94,5.3c-1.208.138-2.4.383-3.6.579Z" transform="translate(0 0)" fill="#fff"/>
  </g>
</svg>
