<svg xmlns="http://www.w3.org/2000/svg" width="79.426" height="66.999" viewBox="0 0 79.426 66.999">
  <g id="Group_10" data-name="Group 10" transform="translate(0)">
    <g id="Group_66" data-name="Group 66" transform="translate(0)">
      <path id="Path_14" data-name="Path 14" d="M626.924,21.292V34.2h-1.517V32.917a3.988,3.988,0,0,1-3.222,1.5,4.607,4.607,0,0,1-4.6-4.79,4.616,4.616,0,0,1,4.569-4.773,4.013,4.013,0,0,1,3.256,1.585V21.292Zm-1.4,8.335a3.209,3.209,0,1,0-6.41,0,3.21,3.21,0,1,0,6.41,0" transform="translate(-554.13 -17.89)" fill="#232323"/>
      <path id="Path_15" data-name="Path 15" d="M616.971,33.2a10.164,10.164,0,1,1,10.164-10.164A10.175,10.175,0,0,1,616.971,33.2m0-18.766a8.6,8.6,0,1,0,8.6,8.6,8.612,8.612,0,0,0-8.6-8.6" transform="translate(-547.71 -12.874)" fill="#232323"/>
      <path id="Path_16" data-name="Path 16" d="M54.1,27.715a27.291,27.291,0,0,0,.48-4.959C54.58,10.154,46.693,0,29.193,0H0V67H18.86V46.056h5.8L35.269,67H56.756L43.066,42.792c3.454-1.764,8.059-4.081,11.034-15.077M18.86,29.737v-12.6H29.012c3.991,0,6.167,2.811,6.167,6.256,0,3.173-1.814,6.347-6.62,6.347" transform="translate(-0.001)" fill="#232323"/>
    </g>
  </g>
</svg>
