<svg id="Group_8" data-name="Group 8" xmlns="http://www.w3.org/2000/svg" xmlns:xlink="http://www.w3.org/1999/xlink" width="276.168" height="219.568" viewBox="0 0 276.168 219.568">
  <defs>
    <clipPath id="clip-path">
      <rect id="Rectangle_2" data-name="Rectangle 2" width="276.168" height="219.568" fill="#232323"/>
    </clipPath>
  </defs>
  <g id="Group_3" data-name="Group 3" clip-path="url(#clip-path)">
    <path id="Path_3" data-name="Path 3" d="M0,92.089c1.343-3.836,3.428-7.132,7.428-8.54a20.247,20.247,0,0,1,6.408-1.122c10.886-.109,21.774.012,32.66-.123A7.829,7.829,0,0,0,50.99,80.7c8.519-6.876,16.929-13.888,25.34-20.9C85.159,52.445,93.92,45,102.772,37.676c5.292-4.381,10.508-8.895,16.111-12.848C125.581,20.1,136.7,23.976,137.7,33a56.025,56.025,0,0,1,.567,6.07q.046,81.923,0,163.846c0,5.622-1.878,10.278-7.356,12.915-5.847,2.814-9.556,1.749-14.631-2.377-9.525-7.744-18.938-15.626-28.376-23.477-7.748-6.446-15.448-12.949-23.2-19.388-4.882-4.054-9.793-8.077-14.771-12.012a5.359,5.359,0,0,0-3.071-1.052c-11.606-.083-23.215-.221-34.818-.007C7.06,157.611,1.76,153.17.539,149.007A2.9,2.9,0,0,0,0,148.249V92.089" transform="translate(0 -8.86)" fill="#232323"/>
    <path id="Path_4" data-name="Path 4" d="M410.818,103.961c0,6.21.355,12.448-.1,18.625-.474,6.471-1.584,12.909-2.667,19.319A145.844,145.844,0,0,1,399.08,172a159.045,159.045,0,0,1-18.421,33.388c-2.311,3.225-4.725,6.388-7.263,9.436a12.221,12.221,0,0,1-13.128,4.256c-5.34-1.465-8.88-5.4-10.5-10.856-1.646-5.552,1.288-9.63,4.431-13.563a136.106,136.106,0,0,0,15.137-23.624A127.675,127.675,0,0,0,379.7,143.02a174.569,174.569,0,0,0,2.951-17.6,103.291,103.291,0,0,0,1.08-13.514,134.862,134.862,0,0,0-5.971-40.282,129.392,129.392,0,0,0-21.582-41.645q-3.26-4.179-6.651-8.254c-3.207-3.861-3.641-11.686.482-15.75,2.9-2.857,5.561-5.85,10.182-5.975,5.678-.154,9.5,2.865,12.794,6.851a164.578,164.578,0,0,1,23.484,37,151.494,151.494,0,0,1,11.572,36.212c.961,5.449,1.5,10.974,2.188,16.469.308,2.462.519,4.936.774,7.4Z" transform="translate(-134.838 0)" fill="#232323"/>
    <path id="Path_5" data-name="Path 5" d="M323.082,138.323a108.288,108.288,0,0,1-7.734,38.262,88.742,88.742,0,0,1-13.075,22.646,12.468,12.468,0,0,1-17.909,1.285,16.379,16.379,0,0,1-5.743-9.593,11.862,11.862,0,0,1,2.456-9.153,70.647,70.647,0,0,0,13.07-30.549A72.979,72.979,0,0,0,283.1,97.81c-1.431-2.218-3.068-4.306-4.638-6.433a10.975,10.975,0,0,1-.852-12.42c5.552-9.812,16.508-11.705,23.541-2.7,7.125,9.119,12.906,18.958,16.3,30.009a159.232,159.232,0,0,1,4.139,18.6c.8,4.432,1.012,8.969,1.487,13.459" transform="translate(-107.272 -27.372)" fill="#232323"/>
  </g>
</svg>
