<svg id="Group_15" data-name="Group 15" xmlns="http://www.w3.org/2000/svg" xmlns:xlink="http://www.w3.org/1999/xlink" width="172" height="57.255" viewBox="0 0 172 57.255">
  <defs>
    <clipPath id="clip-path">
      <rect id="Rectangle_51" data-name="Rectangle 51" width="172" height="57.255" fill="#232323"/>
    </clipPath>
  </defs>
  <g id="Group_9" data-name="Group 9" clip-path="url(#clip-path)">
    <path id="Path_14" data-name="Path 14" d="M623.633,21.292V29.65h-.982v-.828a2.583,2.583,0,0,1-2.087.972,3.1,3.1,0,0,1-.022-6.194,2.6,2.6,0,0,1,2.109,1.027V21.292Zm-.905,5.4a2.079,2.079,0,1,0-2.076,2.2,2.072,2.072,0,0,0,2.076-2.2" transform="translate(-455.929 -15.719)" fill="#232323"/>
    <path id="Path_15" data-name="Path 15" d="M613.391,26.04a6.583,6.583,0,1,1,6.583-6.583,6.591,6.591,0,0,1-6.583,6.583m0-12.155a5.572,5.572,0,1,0,5.572,5.571,5.578,5.578,0,0,0-5.572-5.571" transform="translate(-447.974 -9.504)" fill="#232323"/>
    <path id="Path_16" data-name="Path 16" d="M153.08,9.865a10.046,10.046,0,0,0-8.515,4.756V10.746h-11.1v8.593c-2.532-6.059-8.521-9.415-15.675-9.415-8.007,0-13.978,4.2-16.438,10.441V10.746H91.075v2.232a13.08,13.08,0,0,0-8.69-3.054c-7.077,0-12.966,3.784-15.405,10.114-2.578-6-8.5-10.231-16.537-10.231-7.027,0-12.441,3.278-15.4,8.144a17.677,17.677,0,0,0,.311-3.212C35.352,6.577,30.244,0,18.909,0H0V43.4H12.216V29.831h3.758L22.844,43.4H36.762L27.895,27.717a13.1,13.1,0,0,0,5.053-4.483,18.254,18.254,0,0,0-.416,3.838c0,9.513,7.046,17.264,17.91,17.264,8.122,0,14.095-4.29,16.627-10.4,2.308,5.794,7.579,9.519,14.846,9.519a12.948,12.948,0,0,0,8.516-2.7v.117c0,3.582-2.525,6.695-8.4,6.695a21.055,21.055,0,0,1-11.157-3.7l-4.05,8.4a27.432,27.432,0,0,0,15.738,4.991c10.393,0,18.791-6.342,18.791-16.971v-6.5c2.331,5.938,7.972,10.315,16.966,10.315a25.17,25.17,0,0,0,14.505-4.463L128.36,32a18.629,18.629,0,0,1-9.454,2.818c-3.641,0-5.99-1.585-7.106-4.111h21.665V43.4h11.511V30.066c0-6.93,2.936-9.1,6.812-9.1a13.635,13.635,0,0,1,4.521.822L157.25,10.8a10.981,10.981,0,0,0-4.169-.939M18.5,19.261H12.216V11.1h6.575a3.8,3.8,0,0,1,3.995,4.052c0,2.055-1.175,4.111-4.288,4.111m31.943,14.27a6.334,6.334,0,0,1-6.4-6.519,6.431,6.431,0,1,1,6.4,6.519m33.47.059a6.423,6.423,0,0,1-6.518-6.636,6.518,6.518,0,0,1,13.036,0,6.423,6.423,0,0,1-6.518,6.636m27.714-10.57a6.229,6.229,0,0,1,6.165-4.052,5.95,5.95,0,0,1,5.99,4.052Z" transform="translate(-0.001)" fill="#232323"/>
  </g>
</svg>
