<svg id="Group_10" data-name="Group 10" xmlns="http://www.w3.org/2000/svg" xmlns:xlink="http://www.w3.org/1999/xlink" width="283.921" height="94.511" viewBox="0 0 283.921 94.511">
  <defs>
    <clipPath id="clip-path">
      <rect id="Rectangle_51" data-name="Rectangle 51" width="283.921" height="94.511" fill="#fff"/>
    </clipPath>
  </defs>
  <g id="Group_9" data-name="Group 9" clip-path="url(#clip-path)">
    <path id="Path_14" data-name="Path 14" d="M627.57,21.292v13.8h-1.622V33.722a4.264,4.264,0,0,1-3.445,1.6,4.925,4.925,0,0,1-4.921-5.121,4.935,4.935,0,0,1,4.885-5.1,4.291,4.291,0,0,1,3.481,1.7v-5.5ZM626.076,30.2a3.431,3.431,0,1,0-6.853,0,3.432,3.432,0,1,0,6.853,0" transform="translate(-350.74 -12.092)" fill="#fff"/>
    <path id="Path_15" data-name="Path 15" d="M617.675,34.608a10.867,10.867,0,1,1,10.867-10.867,10.879,10.879,0,0,1-10.867,10.867m0-20.064a9.2,9.2,0,1,0,9.2,9.2,9.207,9.207,0,0,0-9.2-9.2" transform="translate(-344.621 -7.311)" fill="#fff"/>
    <path id="Path_16" data-name="Path 16" d="M252.69,16.284a16.583,16.583,0,0,0-14.056,7.851v-6.4H220.311V31.923c-4.179-10-14.065-15.541-25.875-15.541-13.217,0-23.073,6.936-27.134,17.235V17.738H150.337v3.684a21.591,21.591,0,0,0-14.345-5.041c-11.682,0-21.4,6.246-25.43,16.695-4.256-9.9-14.036-16.889-27.3-16.889-11.6,0-20.537,5.41-25.421,13.444a29.179,29.179,0,0,0,.513-5.3C58.355,10.856,49.923,0,31.213,0H0V71.634H20.165V49.242h6.2l11.34,22.391H60.682L46.045,45.752a21.63,21.63,0,0,0,8.341-7.4,30.132,30.132,0,0,0-.687,6.335c0,15.7,11.631,28.5,29.564,28.5,13.407,0,23.266-7.081,27.445-17.166,3.81,9.564,12.51,15.713,24.506,15.713,6.2,0,10.76-1.745,14.057-4.459v.194c0,5.913-4.169,11.051-13.863,11.051-7.171,0-13.571-3.005-18.418-6.107L110.3,86.272a45.282,45.282,0,0,0,25.978,8.239c17.156,0,31.019-10.469,31.019-28.014V55.77c3.848,9.8,13.16,17.027,28.006,17.027a41.548,41.548,0,0,0,23.943-7.367l-7.367-12.6a30.751,30.751,0,0,1-15.606,4.652c-6.011,0-9.887-2.617-11.729-6.785h35.762V71.634h19v-22c0-11.439,4.847-15.026,11.244-15.026a22.507,22.507,0,0,1,7.462,1.357l1.553-18.126a18.126,18.126,0,0,0-6.883-1.55M30.535,31.794H20.165V18.32H31.019c4.267,0,6.594,3.005,6.594,6.689,0,3.392-1.94,6.786-7.078,6.786M83.263,55.349A10.455,10.455,0,0,1,72.7,44.589a10.616,10.616,0,1,1,10.566,10.76m55.249.1a10.6,10.6,0,0,1-10.759-10.954,10.76,10.76,0,0,1,21.519,0,10.6,10.6,0,0,1-10.76,10.954M184.26,38c1.743-4.459,5.522-6.689,10.176-6.689,5.041,0,8.433,2.617,9.888,6.689Z" transform="translate(-0.001)" fill="#fff"/>
  </g>
</svg>
